<svg xmlns="http://www.w3.org/2000/svg" xmlns:xlink="http://www.w3.org/1999/xlink" width="460" zoomAndPan="magnify" viewBox="0 0 345 67.499998" height="90" preserveAspectRatio="xMidYMid meet" version="1.0"><defs><g/></defs><g fill="#2c3e50" fill-opacity="1"><g transform="translate(3.734606, 51.800583)"><g><path d="M 17.453125 0.390625 C 14.617188 0.390625 12.078125 -0.0664062 9.828125 -0.984375 C 7.585938 -1.910156 5.796875 -3.273438 4.453125 -5.078125 C 3.109375 -6.878906 2.394531 -9.050781 2.3125 -11.59375 L 12.375 -11.59375 C 12.519531 -10.15625 13.015625 -9.0625 13.859375 -8.3125 C 14.710938 -7.5625 15.816406 -7.1875 17.171875 -7.1875 C 18.578125 -7.1875 19.679688 -7.503906 20.484375 -8.140625 C 21.296875 -8.785156 21.703125 -9.679688 21.703125 -10.828125 C 21.703125 -11.785156 21.378906 -12.578125 20.734375 -13.203125 C 20.097656 -13.828125 19.304688 -14.34375 18.359375 -14.75 C 17.421875 -15.15625 16.085938 -15.613281 14.359375 -16.125 C 11.859375 -16.894531 9.816406 -17.664062 8.234375 -18.4375 C 6.648438 -19.21875 5.285156 -20.363281 4.140625 -21.875 C 3.003906 -23.382812 2.4375 -25.351562 2.4375 -27.78125 C 2.4375 -31.394531 3.742188 -34.222656 6.359375 -36.265625 C 8.972656 -38.304688 12.378906 -39.328125 16.578125 -39.328125 C 20.847656 -39.328125 24.289062 -38.304688 26.90625 -36.265625 C 29.519531 -34.222656 30.914062 -31.378906 31.09375 -27.734375 L 20.875 -27.734375 C 20.800781 -28.984375 20.34375 -29.96875 19.5 -30.6875 C 18.65625 -31.40625 17.566406 -31.765625 16.234375 -31.765625 C 15.097656 -31.765625 14.175781 -31.457031 13.46875 -30.84375 C 12.769531 -30.238281 12.421875 -29.363281 12.421875 -28.21875 C 12.421875 -26.96875 13.007812 -25.992188 14.1875 -25.296875 C 15.375 -24.597656 17.21875 -23.84375 19.71875 -23.03125 C 22.21875 -22.1875 24.25 -21.375 25.8125 -20.59375 C 27.382812 -19.820312 28.738281 -18.703125 29.875 -17.234375 C 31.019531 -15.765625 31.59375 -13.867188 31.59375 -11.546875 C 31.59375 -9.335938 31.03125 -7.328125 29.90625 -5.515625 C 28.78125 -3.710938 27.148438 -2.273438 25.015625 -1.203125 C 22.878906 -0.140625 20.359375 0.390625 17.453125 0.390625 Z M 17.453125 0.390625 "/></g></g></g><g fill="#2c3e50" fill-opacity="1"><g transform="translate(35.934053, 51.800583)"><g><path d="M 1.546875 -15.46875 C 1.546875 -18.632812 2.144531 -21.410156 3.34375 -23.796875 C 4.539062 -26.191406 6.171875 -28.035156 8.234375 -29.328125 C 10.296875 -30.617188 12.597656 -31.265625 15.140625 -31.265625 C 17.304688 -31.265625 19.207031 -30.820312 20.84375 -29.9375 C 22.488281 -29.050781 23.753906 -27.890625 24.640625 -26.453125 L 24.640625 -30.828125 L 34.078125 -30.828125 L 34.078125 0 L 24.640625 0 L 24.640625 -4.359375 C 23.710938 -2.921875 22.429688 -1.757812 20.796875 -0.875 C 19.160156 0 17.253906 0.4375 15.078125 0.4375 C 12.578125 0.4375 10.296875 -0.210938 8.234375 -1.515625 C 6.171875 -2.828125 4.539062 -4.6875 3.34375 -7.09375 C 2.144531 -9.507812 1.546875 -12.300781 1.546875 -15.46875 Z M 24.640625 -15.40625 C 24.640625 -17.769531 23.984375 -19.628906 22.671875 -20.984375 C 21.367188 -22.347656 19.773438 -23.03125 17.890625 -23.03125 C 16.015625 -23.03125 14.421875 -22.359375 13.109375 -21.015625 C 11.804688 -19.671875 11.15625 -17.820312 11.15625 -15.46875 C 11.15625 -13.113281 11.804688 -11.242188 13.109375 -9.859375 C 14.421875 -8.472656 16.015625 -7.78125 17.890625 -7.78125 C 19.773438 -7.78125 21.367188 -8.460938 22.671875 -9.828125 C 23.984375 -11.191406 24.640625 -13.050781 24.640625 -15.40625 Z M 24.640625 -15.40625 "/></g></g></g><g fill="#2c3e50" fill-opacity="1"><g transform="translate(71.668316, 51.800583)"><g><path d="M 12.875 -40.875 L 12.875 0 L 3.421875 0 L 3.421875 -40.875 Z M 12.875 -40.875 "/></g></g></g><g fill="#2c3e50" fill-opacity="1"><g transform="translate(86.193679, 51.800583)"><g><path d="M 8.171875 -34.03125 C 6.515625 -34.03125 5.160156 -34.515625 4.109375 -35.484375 C 3.066406 -36.460938 2.546875 -37.671875 2.546875 -39.109375 C 2.546875 -40.578125 3.066406 -41.800781 4.109375 -42.78125 C 5.160156 -43.757812 6.515625 -44.25 8.171875 -44.25 C 9.796875 -44.25 11.128906 -43.757812 12.171875 -42.78125 C 13.222656 -41.800781 13.75 -40.578125 13.75 -39.109375 C 13.75 -37.671875 13.222656 -36.460938 12.171875 -35.484375 C 11.128906 -34.515625 9.796875 -34.03125 8.171875 -34.03125 Z M 12.875 -30.828125 L 12.875 0 L 3.421875 0 L 3.421875 -30.828125 Z M 12.875 -30.828125 "/></g></g></g><g fill="#2c3e50" fill-opacity="1"><g transform="translate(100.719042, 51.800583)"><g><path d="M 42.75 -31.15625 C 46.582031 -31.15625 49.628906 -29.992188 51.890625 -27.671875 C 54.160156 -25.347656 55.296875 -22.125 55.296875 -18 L 55.296875 0 L 45.90625 0 L 45.90625 -16.734375 C 45.90625 -18.722656 45.378906 -20.257812 44.328125 -21.34375 C 43.273438 -22.4375 41.828125 -22.984375 39.984375 -22.984375 C 38.148438 -22.984375 36.707031 -22.4375 35.65625 -21.34375 C 34.601562 -20.257812 34.078125 -18.722656 34.078125 -16.734375 L 34.078125 0 L 24.6875 0 L 24.6875 -16.734375 C 24.6875 -18.722656 24.160156 -20.257812 23.109375 -21.34375 C 22.066406 -22.4375 20.625 -22.984375 18.78125 -22.984375 C 16.9375 -22.984375 15.488281 -22.4375 14.4375 -21.34375 C 13.394531 -20.257812 12.875 -18.722656 12.875 -16.734375 L 12.875 0 L 3.421875 0 L 3.421875 -30.828125 L 12.875 -30.828125 L 12.875 -26.953125 C 13.832031 -28.242188 15.082031 -29.265625 16.625 -30.015625 C 18.175781 -30.773438 19.925781 -31.15625 21.875 -31.15625 C 24.195312 -31.15625 26.269531 -30.65625 28.09375 -29.65625 C 29.914062 -28.664062 31.34375 -27.25 32.375 -25.40625 C 33.4375 -27.101562 34.890625 -28.484375 36.734375 -29.546875 C 38.578125 -30.617188 40.582031 -31.15625 42.75 -31.15625 Z M 42.75 -31.15625 "/></g></g></g><g fill="#f39c12" fill-opacity="1"><g transform="translate(157.447543, 51.800583)"><g><path d="M 26.90625 -19.890625 C 29.144531 -19.410156 30.945312 -18.296875 32.3125 -16.546875 C 33.675781 -14.796875 34.359375 -12.796875 34.359375 -10.546875 C 34.359375 -7.304688 33.222656 -4.738281 30.953125 -2.84375 C 28.691406 -0.945312 25.535156 0 21.484375 0 L 3.421875 0 L 3.421875 -38.78125 L 20.875 -38.78125 C 24.8125 -38.78125 27.894531 -37.875 30.125 -36.0625 C 32.351562 -34.257812 33.46875 -31.8125 33.46875 -28.71875 C 33.46875 -26.4375 32.867188 -24.539062 31.671875 -23.03125 C 30.472656 -21.519531 28.882812 -20.472656 26.90625 -19.890625 Z M 12.875 -23.09375 L 19.0625 -23.09375 C 20.601562 -23.09375 21.785156 -23.429688 22.609375 -24.109375 C 23.441406 -24.785156 23.859375 -25.789062 23.859375 -27.125 C 23.859375 -28.445312 23.441406 -29.457031 22.609375 -30.15625 C 21.785156 -30.851562 20.601562 -31.203125 19.0625 -31.203125 L 12.875 -31.203125 Z M 19.828125 -7.625 C 21.410156 -7.625 22.632812 -7.984375 23.5 -8.703125 C 24.363281 -9.421875 24.796875 -10.457031 24.796875 -11.8125 C 24.796875 -13.175781 24.34375 -14.242188 23.4375 -15.015625 C 22.539062 -15.796875 21.300781 -16.1875 19.71875 -16.1875 L 12.875 -16.1875 L 12.875 -7.625 Z M 19.828125 -7.625 "/></g></g></g><g fill="#f39c12" fill-opacity="1"><g transform="translate(192.077177, 51.800583)"><g><path d="M 8.171875 -34.03125 C 6.515625 -34.03125 5.160156 -34.515625 4.109375 -35.484375 C 3.066406 -36.460938 2.546875 -37.671875 2.546875 -39.109375 C 2.546875 -40.578125 3.066406 -41.800781 4.109375 -42.78125 C 5.160156 -43.757812 6.515625 -44.25 8.171875 -44.25 C 9.796875 -44.25 11.128906 -43.757812 12.171875 -42.78125 C 13.222656 -41.800781 13.75 -40.578125 13.75 -39.109375 C 13.75 -37.671875 13.222656 -36.460938 12.171875 -35.484375 C 11.128906 -34.515625 9.796875 -34.03125 8.171875 -34.03125 Z M 12.875 -30.828125 L 12.875 0 L 3.421875 0 L 3.421875 -30.828125 Z M 12.875 -30.828125 "/></g></g></g><g fill="#f39c12" fill-opacity="1"><g transform="translate(206.60254, 51.800583)"><g><path d="M 15.140625 -31.265625 C 17.304688 -31.265625 19.207031 -30.820312 20.84375 -29.9375 C 22.488281 -29.050781 23.753906 -27.890625 24.640625 -26.453125 L 24.640625 -30.828125 L 34.078125 -30.828125 L 34.078125 -0.0625 C 34.078125 2.78125 33.515625 5.351562 32.390625 7.65625 C 31.265625 9.957031 29.550781 11.785156 27.25 13.140625 C 24.957031 14.503906 22.097656 15.1875 18.671875 15.1875 C 14.097656 15.1875 10.394531 14.109375 7.5625 11.953125 C 4.726562 9.804688 3.109375 6.890625 2.703125 3.203125 L 12.046875 3.203125 C 12.335938 4.378906 13.035156 5.304688 14.140625 5.984375 C 15.242188 6.671875 16.609375 7.015625 18.234375 7.015625 C 20.179688 7.015625 21.734375 6.453125 22.890625 5.328125 C 24.054688 4.203125 24.640625 2.40625 24.640625 -0.0625 L 24.640625 -4.421875 C 23.710938 -2.984375 22.4375 -1.8125 20.8125 -0.90625 C 19.195312 -0.0078125 17.304688 0.4375 15.140625 0.4375 C 12.597656 0.4375 10.296875 -0.210938 8.234375 -1.515625 C 6.171875 -2.828125 4.539062 -4.6875 3.34375 -7.09375 C 2.144531 -9.507812 1.546875 -12.300781 1.546875 -15.46875 C 1.546875 -18.632812 2.144531 -21.410156 3.34375 -23.796875 C 4.539062 -26.191406 6.171875 -28.035156 8.234375 -29.328125 C 10.296875 -30.617188 12.597656 -31.265625 15.140625 -31.265625 Z M 24.640625 -15.40625 C 24.640625 -17.769531 23.984375 -19.628906 22.671875 -20.984375 C 21.367188 -22.347656 19.773438 -23.03125 17.890625 -23.03125 C 16.015625 -23.03125 14.421875 -22.359375 13.109375 -21.015625 C 11.804688 -19.671875 11.15625 -17.820312 11.15625 -15.46875 C 11.15625 -13.113281 11.804688 -11.242188 13.109375 -9.859375 C 14.421875 -8.472656 16.015625 -7.78125 17.890625 -7.78125 C 19.773438 -7.78125 21.367188 -8.460938 22.671875 -9.828125 C 23.984375 -11.191406 24.640625 -13.050781 24.640625 -15.40625 Z M 24.640625 -15.40625 "/></g></g></g><g fill="#f39c12" fill-opacity="1"><g transform="translate(242.336804, 51.800583)"><g><path d="M 22.265625 0 L 12.875 -12.921875 L 12.875 0 L 3.421875 0 L 3.421875 -40.875 L 12.875 -40.875 L 12.875 -18.28125 L 22.203125 -30.828125 L 33.859375 -30.828125 L 21.046875 -15.359375 L 33.96875 0 Z M 22.265625 0 "/></g></g></g><g fill="#f39c12" fill-opacity="1"><g transform="translate(274.701947, 51.800583)"><g><path d="M 1.546875 -15.46875 C 1.546875 -18.632812 2.144531 -21.410156 3.34375 -23.796875 C 4.539062 -26.191406 6.171875 -28.035156 8.234375 -29.328125 C 10.296875 -30.617188 12.597656 -31.265625 15.140625 -31.265625 C 17.304688 -31.265625 19.207031 -30.820312 20.84375 -29.9375 C 22.488281 -29.050781 23.753906 -27.890625 24.640625 -26.453125 L 24.640625 -30.828125 L 34.078125 -30.828125 L 34.078125 0 L 24.640625 0 L 24.640625 -4.359375 C 23.710938 -2.921875 22.429688 -1.757812 20.796875 -0.875 C 19.160156 0 17.253906 0.4375 15.078125 0.4375 C 12.578125 0.4375 10.296875 -0.210938 8.234375 -1.515625 C 6.171875 -2.828125 4.539062 -4.6875 3.34375 -7.09375 C 2.144531 -9.507812 1.546875 -12.300781 1.546875 -15.46875 Z M 24.640625 -15.40625 C 24.640625 -17.769531 23.984375 -19.628906 22.671875 -20.984375 C 21.367188 -22.347656 19.773438 -23.03125 17.890625 -23.03125 C 16.015625 -23.03125 14.421875 -22.359375 13.109375 -21.015625 C 11.804688 -19.671875 11.15625 -17.820312 11.15625 -15.46875 C 11.15625 -13.113281 11.804688 -11.242188 13.109375 -9.859375 C 14.421875 -8.472656 16.015625 -7.78125 17.890625 -7.78125 C 19.773438 -7.78125 21.367188 -8.460938 22.671875 -9.828125 C 23.984375 -11.191406 24.640625 -13.050781 24.640625 -15.40625 Z M 24.640625 -15.40625 "/></g></g></g><g fill="#f39c12" fill-opacity="1"><g transform="translate(310.436216, 51.800583)"><g><path d="M 15.96875 0.4375 C 13.28125 0.4375 10.882812 -0.0195312 8.78125 -0.9375 C 6.6875 -1.851562 5.03125 -3.113281 3.8125 -4.71875 C 2.59375 -6.320312 1.910156 -8.117188 1.765625 -10.109375 L 11.109375 -10.109375 C 11.210938 -9.035156 11.707031 -8.164062 12.59375 -7.5 C 13.476562 -6.84375 14.566406 -6.515625 15.859375 -6.515625 C 17.035156 -6.515625 17.941406 -6.742188 18.578125 -7.203125 C 19.222656 -7.671875 19.546875 -8.269531 19.546875 -9 C 19.546875 -9.882812 19.085938 -10.535156 18.171875 -10.953125 C 17.253906 -11.378906 15.765625 -11.851562 13.703125 -12.375 C 11.492188 -12.882812 9.648438 -13.425781 8.171875 -14 C 6.703125 -14.570312 5.429688 -15.472656 4.359375 -16.703125 C 3.296875 -17.941406 2.765625 -19.609375 2.765625 -21.703125 C 2.765625 -23.472656 3.25 -25.082031 4.21875 -26.53125 C 5.195312 -27.988281 6.632812 -29.140625 8.53125 -29.984375 C 10.425781 -30.835938 12.679688 -31.265625 15.296875 -31.265625 C 19.160156 -31.265625 22.207031 -30.304688 24.4375 -28.390625 C 26.664062 -26.472656 27.945312 -23.929688 28.28125 -20.765625 L 19.546875 -20.765625 C 19.398438 -21.835938 18.929688 -22.6875 18.140625 -23.3125 C 17.347656 -23.9375 16.3125 -24.25 15.03125 -24.25 C 13.914062 -24.25 13.0625 -24.035156 12.46875 -23.609375 C 11.882812 -23.191406 11.59375 -22.613281 11.59375 -21.875 C 11.59375 -20.988281 12.0625 -20.320312 13 -19.875 C 13.945312 -19.4375 15.414062 -19 17.40625 -18.5625 C 19.6875 -17.96875 21.539062 -17.382812 22.96875 -16.8125 C 24.40625 -16.25 25.664062 -15.332031 26.75 -14.0625 C 27.84375 -12.789062 28.410156 -11.085938 28.453125 -8.953125 C 28.453125 -7.140625 27.941406 -5.523438 26.921875 -4.109375 C 25.910156 -2.691406 24.457031 -1.578125 22.5625 -0.765625 C 20.664062 0.0351562 18.46875 0.4375 15.96875 0.4375 Z M 15.96875 0.4375 "/></g></g></g></svg>