<svg xmlns="http://www.w3.org/2000/svg" xmlns:xlink="http://www.w3.org/1999/xlink" width="460" zoomAndPan="magnify" viewBox="0 0 345 67.499998" height="90" preserveAspectRatio="xMidYMid meet" version="1.0"><defs><g/></defs><g fill="#2c3e50" fill-opacity="1"><g transform="translate(3.945208, 51.808177)"><g><path d="M 17.4375 0.390625 C 14.601562 0.390625 12.0625 -0.0664062 9.8125 -0.984375 C 7.570312 -1.910156 5.78125 -3.273438 4.4375 -5.078125 C 3.09375 -6.878906 2.382812 -9.050781 2.3125 -11.59375 L 12.359375 -11.59375 C 12.503906 -10.15625 13 -9.054688 13.84375 -8.296875 C 14.6875 -7.546875 15.789062 -7.171875 17.15625 -7.171875 C 18.550781 -7.171875 19.65625 -7.492188 20.46875 -8.140625 C 21.28125 -8.785156 21.6875 -9.675781 21.6875 -10.8125 C 21.6875 -11.769531 21.363281 -12.5625 20.71875 -13.1875 C 20.070312 -13.8125 19.28125 -14.328125 18.34375 -14.734375 C 17.40625 -15.140625 16.070312 -15.597656 14.34375 -16.109375 C 11.84375 -16.878906 9.800781 -17.648438 8.21875 -18.421875 C 6.632812 -19.203125 5.269531 -20.34375 4.125 -21.84375 C 2.988281 -23.351562 2.421875 -25.320312 2.421875 -27.75 C 2.421875 -31.351562 3.726562 -34.175781 6.34375 -36.21875 C 8.957031 -38.257812 12.359375 -39.28125 16.546875 -39.28125 C 20.816406 -39.28125 24.253906 -38.257812 26.859375 -36.21875 C 29.472656 -34.175781 30.875 -31.335938 31.0625 -27.703125 L 20.859375 -27.703125 C 20.785156 -28.953125 20.320312 -29.929688 19.46875 -30.640625 C 18.625 -31.359375 17.539062 -31.71875 16.21875 -31.71875 C 15.082031 -31.71875 14.160156 -31.414062 13.453125 -30.8125 C 12.753906 -30.207031 12.40625 -29.332031 12.40625 -28.1875 C 12.40625 -26.9375 12.992188 -25.960938 14.171875 -25.265625 C 15.347656 -24.566406 17.191406 -23.8125 19.703125 -23 C 22.203125 -22.15625 24.234375 -21.347656 25.796875 -20.578125 C 27.359375 -19.804688 28.707031 -18.679688 29.84375 -17.203125 C 30.988281 -15.734375 31.5625 -13.84375 31.5625 -11.53125 C 31.5625 -9.320312 31 -7.316406 29.875 -5.515625 C 28.75 -3.710938 27.117188 -2.273438 24.984375 -1.203125 C 22.859375 -0.140625 20.34375 0.390625 17.4375 0.390625 Z M 17.4375 0.390625 "/></g></g></g><g fill="#2c3e50" fill-opacity="1"><g transform="translate(36.10419, 51.808177)"><g><path d="M 1.546875 -15.453125 C 1.546875 -18.609375 2.140625 -21.378906 3.328125 -23.765625 C 4.523438 -26.160156 6.15625 -28.003906 8.21875 -29.296875 C 10.28125 -30.585938 12.578125 -31.234375 15.109375 -31.234375 C 17.285156 -31.234375 19.191406 -30.789062 20.828125 -29.90625 C 22.460938 -29.019531 23.722656 -27.859375 24.609375 -26.421875 L 24.609375 -30.78125 L 34.046875 -30.78125 L 34.046875 0 L 24.609375 0 L 24.609375 -4.359375 C 23.691406 -2.921875 22.410156 -1.757812 20.765625 -0.875 C 19.128906 0 17.226562 0.4375 15.0625 0.4375 C 12.5625 0.4375 10.28125 -0.210938 8.21875 -1.515625 C 6.15625 -2.816406 4.523438 -4.671875 3.328125 -7.078125 C 2.140625 -9.492188 1.546875 -12.285156 1.546875 -15.453125 Z M 24.609375 -15.390625 C 24.609375 -17.742188 23.953125 -19.597656 22.640625 -20.953125 C 21.335938 -22.316406 19.75 -23 17.875 -23 C 16 -23 14.40625 -22.328125 13.09375 -20.984375 C 11.789062 -19.648438 11.140625 -17.804688 11.140625 -15.453125 C 11.140625 -13.097656 11.789062 -11.226562 13.09375 -9.84375 C 14.40625 -8.46875 16 -7.78125 17.875 -7.78125 C 19.75 -7.78125 21.335938 -8.457031 22.640625 -9.8125 C 23.953125 -11.175781 24.609375 -13.035156 24.609375 -15.390625 Z M 24.609375 -15.390625 "/></g></g></g><g fill="#2c3e50" fill-opacity="1"><g transform="translate(71.793525, 51.808177)"><g><path d="M 12.859375 -40.828125 L 12.859375 0 L 3.421875 0 L 3.421875 -40.828125 Z M 12.859375 -40.828125 "/></g></g></g><g fill="#2c3e50" fill-opacity="1"><g transform="translate(86.300746, 51.808177)"><g><path d="M 8.171875 -33.984375 C 6.515625 -33.984375 5.160156 -34.46875 4.109375 -35.4375 C 3.054688 -36.414062 2.53125 -37.625 2.53125 -39.0625 C 2.53125 -40.53125 3.054688 -41.75 4.109375 -42.71875 C 5.160156 -43.695312 6.515625 -44.1875 8.171875 -44.1875 C 9.785156 -44.1875 11.113281 -43.695312 12.15625 -42.71875 C 13.207031 -41.75 13.734375 -40.53125 13.734375 -39.0625 C 13.734375 -37.625 13.207031 -36.414062 12.15625 -35.4375 C 11.113281 -34.46875 9.785156 -33.984375 8.171875 -33.984375 Z M 12.859375 -30.78125 L 12.859375 0 L 3.421875 0 L 3.421875 -30.78125 Z M 12.859375 -30.78125 "/></g></g></g><g fill="#2c3e50" fill-opacity="1"><g transform="translate(100.807968, 51.808177)"><g><path d="M 42.703125 -31.109375 C 46.523438 -31.109375 49.566406 -29.953125 51.828125 -27.640625 C 54.097656 -25.328125 55.234375 -22.109375 55.234375 -17.984375 L 55.234375 0 L 45.84375 0 L 45.84375 -16.71875 C 45.84375 -18.707031 45.316406 -20.242188 44.265625 -21.328125 C 43.222656 -22.410156 41.78125 -22.953125 39.9375 -22.953125 C 38.101562 -22.953125 36.660156 -22.410156 35.609375 -21.328125 C 34.566406 -20.242188 34.046875 -18.707031 34.046875 -16.71875 L 34.046875 0 L 24.65625 0 L 24.65625 -16.71875 C 24.65625 -18.707031 24.128906 -20.242188 23.078125 -21.328125 C 22.035156 -22.410156 20.597656 -22.953125 18.765625 -22.953125 C 16.921875 -22.953125 15.472656 -22.410156 14.421875 -21.328125 C 13.378906 -20.242188 12.859375 -18.707031 12.859375 -16.71875 L 12.859375 0 L 3.421875 0 L 3.421875 -30.78125 L 12.859375 -30.78125 L 12.859375 -26.921875 C 13.816406 -28.210938 15.066406 -29.234375 16.609375 -29.984375 C 18.148438 -30.734375 19.894531 -31.109375 21.84375 -31.109375 C 24.164062 -31.109375 26.234375 -30.613281 28.046875 -29.625 C 29.867188 -28.632812 31.296875 -27.21875 32.328125 -25.375 C 33.398438 -27.070312 34.851562 -28.453125 36.6875 -29.515625 C 38.53125 -30.578125 40.535156 -31.109375 42.703125 -31.109375 Z M 42.703125 -31.109375 "/></g></g></g><g fill="#2c3e50" fill-opacity="1"><g transform="translate(157.458755, 51.808177)"><g><path d="M 26.875 -19.859375 C 29.113281 -19.378906 30.910156 -18.265625 32.265625 -16.515625 C 33.628906 -14.773438 34.3125 -12.78125 34.3125 -10.53125 C 34.3125 -7.300781 33.179688 -4.738281 30.921875 -2.84375 C 28.660156 -0.945312 25.507812 0 21.46875 0 L 3.421875 0 L 3.421875 -38.734375 L 20.859375 -38.734375 C 24.796875 -38.734375 27.875 -37.832031 30.09375 -36.03125 C 32.320312 -34.226562 33.4375 -31.78125 33.4375 -28.6875 C 33.4375 -26.40625 32.835938 -24.507812 31.640625 -23 C 30.441406 -21.5 28.851562 -20.453125 26.875 -19.859375 Z M 12.859375 -23.0625 L 19.03125 -23.0625 C 20.570312 -23.0625 21.753906 -23.398438 22.578125 -24.078125 C 23.410156 -24.765625 23.828125 -25.769531 23.828125 -27.09375 C 23.828125 -28.414062 23.410156 -29.425781 22.578125 -30.125 C 21.753906 -30.820312 20.570312 -31.171875 19.03125 -31.171875 L 12.859375 -31.171875 Z M 19.8125 -7.609375 C 21.382812 -7.609375 22.601562 -7.96875 23.46875 -8.6875 C 24.332031 -9.40625 24.765625 -10.445312 24.765625 -11.8125 C 24.765625 -13.164062 24.3125 -14.226562 23.40625 -15 C 22.507812 -15.78125 21.273438 -16.171875 19.703125 -16.171875 L 12.859375 -16.171875 L 12.859375 -7.609375 Z M 19.8125 -7.609375 "/></g></g></g><g fill="#2c3e50" fill-opacity="1"><g transform="translate(192.044852, 51.808177)"><g><path d="M 8.171875 -33.984375 C 6.515625 -33.984375 5.160156 -34.46875 4.109375 -35.4375 C 3.054688 -36.414062 2.53125 -37.625 2.53125 -39.0625 C 2.53125 -40.53125 3.054688 -41.75 4.109375 -42.71875 C 5.160156 -43.695312 6.515625 -44.1875 8.171875 -44.1875 C 9.785156 -44.1875 11.113281 -43.695312 12.15625 -42.71875 C 13.207031 -41.75 13.734375 -40.53125 13.734375 -39.0625 C 13.734375 -37.625 13.207031 -36.414062 12.15625 -35.4375 C 11.113281 -34.46875 9.785156 -33.984375 8.171875 -33.984375 Z M 12.859375 -30.78125 L 12.859375 0 L 3.421875 0 L 3.421875 -30.78125 Z M 12.859375 -30.78125 "/></g></g></g><g fill="#2c3e50" fill-opacity="1"><g transform="translate(206.552068, 51.808177)"><g><path d="M 15.109375 -31.234375 C 17.285156 -31.234375 19.191406 -30.789062 20.828125 -29.90625 C 22.460938 -29.019531 23.722656 -27.859375 24.609375 -26.421875 L 24.609375 -30.78125 L 34.046875 -30.78125 L 34.046875 -0.0625 C 34.046875 2.769531 33.484375 5.335938 32.359375 7.640625 C 31.234375 9.941406 29.519531 11.769531 27.21875 13.125 C 24.925781 14.488281 22.066406 15.171875 18.640625 15.171875 C 14.085938 15.171875 10.394531 14.09375 7.5625 11.9375 C 4.726562 9.789062 3.109375 6.878906 2.703125 3.203125 L 12.03125 3.203125 C 12.320312 4.378906 13.019531 5.304688 14.125 5.984375 C 15.226562 6.660156 16.585938 7 18.203125 7 C 20.148438 7 21.703125 6.4375 22.859375 5.3125 C 24.023438 4.195312 24.609375 2.40625 24.609375 -0.0625 L 24.609375 -4.40625 C 23.691406 -2.976562 22.421875 -1.8125 20.796875 -0.90625 C 19.179688 -0.0078125 17.285156 0.4375 15.109375 0.4375 C 12.578125 0.4375 10.28125 -0.210938 8.21875 -1.515625 C 6.15625 -2.816406 4.523438 -4.671875 3.328125 -7.078125 C 2.140625 -9.492188 1.546875 -12.285156 1.546875 -15.453125 C 1.546875 -18.609375 2.140625 -21.378906 3.328125 -23.765625 C 4.523438 -26.160156 6.15625 -28.003906 8.21875 -29.296875 C 10.28125 -30.585938 12.578125 -31.234375 15.109375 -31.234375 Z M 24.609375 -15.390625 C 24.609375 -17.742188 23.953125 -19.597656 22.640625 -20.953125 C 21.335938 -22.316406 19.75 -23 17.875 -23 C 16 -23 14.40625 -22.328125 13.09375 -20.984375 C 11.789062 -19.648438 11.140625 -17.804688 11.140625 -15.453125 C 11.140625 -13.097656 11.789062 -11.226562 13.09375 -9.84375 C 14.40625 -8.46875 16 -7.78125 17.875 -7.78125 C 19.75 -7.78125 21.335938 -8.457031 22.640625 -9.8125 C 23.953125 -11.175781 24.609375 -13.035156 24.609375 -15.390625 Z M 24.609375 -15.390625 "/></g></g></g><g fill="#2c3e50" fill-opacity="1"><g transform="translate(242.241397, 51.808177)"><g><path d="M 22.234375 0 L 12.859375 -12.90625 L 12.859375 0 L 3.421875 0 L 3.421875 -40.828125 L 12.859375 -40.828125 L 12.859375 -18.265625 L 22.171875 -30.78125 L 33.828125 -30.78125 L 21.015625 -15.34375 L 33.9375 0 Z M 22.234375 0 "/></g></g></g><g fill="#2c3e50" fill-opacity="1"><g transform="translate(274.565866, 51.808177)"><g><path d="M 1.546875 -15.453125 C 1.546875 -18.609375 2.140625 -21.378906 3.328125 -23.765625 C 4.523438 -26.160156 6.15625 -28.003906 8.21875 -29.296875 C 10.28125 -30.585938 12.578125 -31.234375 15.109375 -31.234375 C 17.285156 -31.234375 19.191406 -30.789062 20.828125 -29.90625 C 22.460938 -29.019531 23.722656 -27.859375 24.609375 -26.421875 L 24.609375 -30.78125 L 34.046875 -30.78125 L 34.046875 0 L 24.609375 0 L 24.609375 -4.359375 C 23.691406 -2.921875 22.410156 -1.757812 20.765625 -0.875 C 19.128906 0 17.226562 0.4375 15.0625 0.4375 C 12.5625 0.4375 10.28125 -0.210938 8.21875 -1.515625 C 6.15625 -2.816406 4.523438 -4.671875 3.328125 -7.078125 C 2.140625 -9.492188 1.546875 -12.285156 1.546875 -15.453125 Z M 24.609375 -15.390625 C 24.609375 -17.742188 23.953125 -19.597656 22.640625 -20.953125 C 21.335938 -22.316406 19.75 -23 17.875 -23 C 16 -23 14.40625 -22.328125 13.09375 -20.984375 C 11.789062 -19.648438 11.140625 -17.804688 11.140625 -15.453125 C 11.140625 -13.097656 11.789062 -11.226562 13.09375 -9.84375 C 14.40625 -8.46875 16 -7.78125 17.875 -7.78125 C 19.75 -7.78125 21.335938 -8.457031 22.640625 -9.8125 C 23.953125 -11.175781 24.609375 -13.035156 24.609375 -15.390625 Z M 24.609375 -15.390625 "/></g></g></g><g fill="#2c3e50" fill-opacity="1"><g transform="translate(310.255195, 51.808177)"><g><path d="M 15.9375 0.4375 C 13.257812 0.4375 10.867188 -0.0195312 8.765625 -0.9375 C 6.671875 -1.851562 5.015625 -3.109375 3.796875 -4.703125 C 2.585938 -6.304688 1.910156 -8.101562 1.765625 -10.09375 L 11.09375 -10.09375 C 11.195312 -9.03125 11.691406 -8.164062 12.578125 -7.5 C 13.460938 -6.84375 14.546875 -6.515625 15.828125 -6.515625 C 17.003906 -6.515625 17.914062 -6.742188 18.5625 -7.203125 C 19.207031 -7.660156 19.53125 -8.257812 19.53125 -9 C 19.53125 -9.875 19.066406 -10.523438 18.140625 -10.953125 C 17.222656 -11.378906 15.738281 -11.847656 13.6875 -12.359375 C 11.476562 -12.867188 9.632812 -13.410156 8.15625 -13.984375 C 6.6875 -14.554688 5.421875 -15.457031 4.359375 -16.6875 C 3.296875 -17.914062 2.765625 -19.582031 2.765625 -21.6875 C 2.765625 -23.445312 3.25 -25.050781 4.21875 -26.5 C 5.195312 -27.957031 6.628906 -29.109375 8.515625 -29.953125 C 10.410156 -30.804688 12.664062 -31.234375 15.28125 -31.234375 C 19.144531 -31.234375 22.1875 -30.273438 24.40625 -28.359375 C 26.632812 -26.441406 27.914062 -23.90625 28.25 -20.75 L 19.53125 -20.75 C 19.382812 -21.8125 18.914062 -22.65625 18.125 -23.28125 C 17.332031 -23.90625 16.289062 -24.21875 15 -24.21875 C 13.90625 -24.21875 13.0625 -24.003906 12.46875 -23.578125 C 11.882812 -23.160156 11.59375 -22.582031 11.59375 -21.84375 C 11.59375 -20.96875 12.0625 -20.304688 13 -19.859375 C 13.9375 -19.421875 15.394531 -18.976562 17.375 -18.53125 C 19.65625 -17.945312 21.515625 -17.367188 22.953125 -16.796875 C 24.390625 -16.222656 25.648438 -15.300781 26.734375 -14.03125 C 27.816406 -12.769531 28.375 -11.070312 28.40625 -8.9375 C 28.40625 -7.132812 27.898438 -5.523438 26.890625 -4.109375 C 25.878906 -2.691406 24.425781 -1.578125 22.53125 -0.765625 C 20.644531 0.0351562 18.445312 0.4375 15.9375 0.4375 Z M 15.9375 0.4375 "/></g></g></g></svg>